<svg xmlns="http://www.w3.org/2000/svg" height="40px" viewBox="0 -960 960 960" width="40px" fill="#ef6d19">
  <path d="M280-120q-50 0-85-35t-35-85q0-38 22-68.5t58-41.5v-260q-36-11-58-41.5T160-720q0-50 35-85t85-35q50 0 85 35t35 85q0 38-22 68.5t-58 41.5v260q36 11 58 41.5t22 68.5q0 50-35 85t-85 35Zm400 0q-50 0-85-35t-35-85q0-38 22-68.5t58-41.5v-260q-36-11-58-41.5T560-720q0-50 35-85t85-35q50 0 85 35t35 85q0 38-22 68.5t-58 41.5v260q36 11 58 41.5t22 68.5q0 50-35 85t-85 35ZM280-680q17 0 28.5-11.5T320-720q0-17-11.5-28.5T280-760q-17 0-28.5 11.5T240-720q0 17 11.5 28.5T280-680Zm400 0q17 0 28.5-11.5T720-720q0-17-11.5-28.5T680-760q-17 0-28.5 11.5T640-720q0 17 11.5 28.5T680-680ZM280-200q17 0 28.5-11.5T320-240q0-17-11.5-28.5T280-280q-17 0-28.5 11.5T240-240q0 17 11.5 28.5T280-200Zm400 0q17 0 28.5-11.5T720-240q0-17-11.5-28.5T680-280q-17 0-28.5 11.5T640-240q0 17 11.5 28.5T680-200Z"/>
</svg>
